<?xml version="1.0" encoding="UTF-8" standalone="no"?>
<!-- Created with Inkscape (http://www.inkscape.org/) -->

<svg
   width="174.125mm"
   height="168.065mm"
   viewBox="0 0 174.125 168.065"
   version="1.1"
   id="svg5"
   xmlns="http://www.w3.org/2000/svg"
   xmlns:svg="http://www.w3.org/2000/svg">
  <defs
     id="defs2" />
  <g
     id="layer1">
    <g
       id="g4167"
       transform="translate(-24.812672,-53.170012)">
      <g
         id="g4175"
         transform="translate(-0.21819988,-0.65459965)">
        <g
           id="g2643"
           transform="matrix(1.0678662,0,0,1.0620157,-245.13618,4.7395351)">
          <g
             id="g4219">
            <path
               d="M 165.76709,54.020287 H 58.6133 c -18.752106,0 -33.485684,18.487086 -33.485684,42.01614 v 84.032233 c 0,23.52904 14.733578,42.01614 33.485684,42.01614 h 107.15379 c 18.75186,0 33.48569,-18.4871 33.48569,-42.01614 V 96.036427 c 0,-23.529054 -14.73383,-42.01614 -33.48569,-42.01614 z"
               id="path4016"
               style="fill:#00529c;fill-opacity:1;stroke-width:7.50181"
               transform="matrix(0.93644692,0,0,0.94160568,229.55702,-4.4627723)" />
            <g
               id="g4225">
              <g
                 aria-label="mo"
                 transform="matrix(0.88190523,0,0,0.8860037,244.57856,24.527575)"
                 id="text1310"
                 style="font-size:72.0062px;line-height:1.25;font-family:'TXT Groovy Smooth';-inkscape-font-specification:'TXT Groovy Smooth';fill:#f36f21;stroke-width:3.00026">
                <path
                   d="m 67.186309,170.06743 v -20.52177 q 0,-2.59222 0.792068,-5.04043 1.872162,-5.7605 5.976515,-9.2168 4.464385,-3.81633 10.224881,-3.81633 6.192534,0 11.665005,5.11244 4.968432,-5.11244 11.593002,-5.11244 5.76049,0 10.29688,3.74433 4.53639,3.74432 6.04852,9.50482 0.72007,2.73623 0.72007,4.46438 v 20.8818 h -10.58492 v -20.30575 q -0.14401,-1.1521 -0.14401,-1.29611 -0.50404,-2.52022 -2.08818,-4.32037 -1.80015,-2.01618 -4.17636,-2.01618 -2.3762,0 -4.17636,2.01618 -1.51213,1.80015 -2.01617,4.32037 -0.072,0.50404 -0.14401,1.29611 v 20.30575 H 90.516319 v -20.52177 q -0.144012,-1.08009 -0.144012,-1.1521 -0.504044,-2.52022 -2.08818,-4.32037 -1.800155,-1.94417 -4.17636,-1.94417 -2.736236,0 -4.608397,2.66423 -1.728149,2.37621 -1.728149,5.25645 v 20.01773 z"
                   id="path2616" />
                <path
                   d="m 127.09552,150.76977 q 0,-7.92069 5.61649,-13.53717 5.61648,-5.61648 13.46516,-5.61648 7.99269,0 13.68118,5.61648 5.68849,5.61648 5.68849,13.60917 0,7.84868 -5.68849,13.53717 -5.61649,5.68849 -13.53717,5.68849 -7.99269,0 -13.60917,-5.61649 -5.61649,-5.68849 -5.61649,-13.68117 z m 10.58492,0 q 0,3.60031 2.52021,6.12052 2.52022,2.52022 6.12053,2.52022 3.5283,0 6.04852,-2.52022 2.59222,-2.59222 2.59222,-6.12052 0,-3.52831 -2.59222,-6.04852 -2.59222,-2.52022 -6.12053,-2.52022 -3.5283,0 -6.04852,2.52022 -2.52021,2.52021 -2.52021,6.04852 z"
                   id="path2618" />
              </g>
              <path
                 d="m 318.23659,100.35233 c 0.38676,-0.380026 0.8435,-0.868911 1.37058,-1.467467 0.52576,-0.598548 1.02387,-1.305314 1.49445,-2.121597 0.47058,-0.816233 0.87251,-1.725606 1.20407,-2.732303 0.33305,-1.005385 0.49958,-2.079617 0.49958,-3.221387 0,-2.228351 -0.38809,-4.308021 -1.16289,-6.238958 -0.77612,-1.929677 -1.96652,-3.616124 -3.57249,-5.057975 -1.60596,-1.439132 -3.61236,-2.568755 -6.02211,-3.384988 -2.4083,-0.814772 -5.2198,-1.222914 -8.43043,-1.222914 h -0.0881 -9.23128 -2.40277 -9.45966 v 10.396783 35.993106 10.70356 h 23.25849 c 3.37716,0 6.32489,-0.44855 8.84599,-1.34579 2.51833,-0.89722 4.61019,-2.13373 6.27117,-3.7107 1.66099,-1.57696 2.89272,-3.41202 3.69635,-5.50514 0.80234,-2.09309 1.20408,-4.3363 1.20408,-6.72947 0,-3.20797 -0.74732,-6.06194 -2.24179,-8.56456 -1.49592,-2.49997 -3.24089,-4.43091 -5.23346,-5.79035 M 307.95246,85.36639 c 0.78296,0.293328 1.43667,0.674255 1.9473,1.153914 1.32257,1.245948 1.98442,2.735024 1.98442,4.467385 0,1.571483 -0.27654,2.870099 -0.82706,3.898416 -0.55182,1.02973 -1.10364,1.814765 -1.65417,2.355258 H 293.23459 V 84.691931 h 10.05006 c 1.88397,0 3.43492,0.228314 4.66797,0.674255 m -1.6776,21.756114 c 2.92707,0 5.09592,0.74457 6.50787,2.23107 1.32793,1.46348 1.99678,3.19034 1.99678,5.18901 0,2.05932 -0.75822,3.81743 -2.27483,5.27949 -1.5179,1.46201 -4.01147,2.19453 -7.48628,2.19453 h -1.29767 -10.4863 v -14.8941 z m 58.86935,0.28526 c 1.74368,-1.16883 3.19826,-2.52823 4.36101,-4.07814 1.16269,-1.5499 2.02023,-3.26206 2.5748,-5.137658 0.55328,-1.877009 0.83115,-3.79313 0.83115,-5.751131 0,-2.555299 -0.43092,-4.906523 -1.2881,-7.055192 -0.86007,-2.147154 -2.14681,-3.995688 -3.86285,-5.545749 -1.71747,-1.54991 -3.86287,-2.759368 -6.4377,-3.629529 -2.57481,-0.868904 -5.55136,-1.305371 -8.9285,-1.305371 h -0.3039 -22.37214 -0.20916 v 57.09366 h 11.00784 v -21.20588 h 6.13769 l 15.1805,21.20588 h 12.9029 l -15.69783,-21.93973 c 2.32431,-0.59728 4.35968,-1.48106 6.1047,-2.65116 M 352.47721,84.692286 a 15.698278,15.434903 0 0 1 1.96798,0.121464 c 1.96246,0.290305 3.56564,0.97837 4.80145,2.071454 1.6817,1.490538 2.52256,3.31745 2.52256,5.482246 a 9.887115,9.7212344 0 0 1 -0.53811,3.16877 7.3608064,7.2373116 0 0 1 -1.6955,2.72015 c -0.77333,0.786455 -1.76563,1.421548 -2.97802,1.90937 -1.21383,0.48787 -2.67527,0.73111 -4.38441,0.73111 H 340.51715 V 84.692084 Z m 26.14814,-9.787496 v 0.01512 l -0.33132,-0.01512 h -0.0935 v 0.0041 20.927527 14.995273 21.16661 h 11.22401 V 74.90464 Z"
                 fill-rule="nonzero"
                 id="path6"
                 style="fill:#ffffff;fill-opacity:1;stroke-width:0.161404" />
            </g>
          </g>
        </g>
      </g>
    </g>
  </g>
</svg>
